<mxfile host="65bd71144e">
    <diagram id="qbdv0IzRGVz_0QFbCluS" name="Page-1">
        <mxGraphModel dx="948" dy="780" grid="1" gridSize="10" guides="1" tooltips="1" connect="1" arrows="1" fold="1" page="1" pageScale="1" pageWidth="850" pageHeight="1100" math="0" shadow="0">
            <root>
                <mxCell id="0"/>
                <mxCell id="1" parent="0"/>
                <mxCell id="11" value="" style="whiteSpace=wrap;html=1;aspect=fixed;fillColor=#E6FFCC;" vertex="1" parent="1">
                    <mxGeometry x="200" y="280" width="480" height="480" as="geometry"/>
                </mxCell>
                <mxCell id="18" value="x0" style="text;html=1;strokeColor=none;fillColor=none;align=center;verticalAlign=middle;whiteSpace=wrap;rounded=0;" vertex="1" parent="1">
                    <mxGeometry x="670" y="150" width="60" height="30" as="geometry"/>
                </mxCell>
                <mxCell id="19" value="x1" style="text;html=1;strokeColor=none;fillColor=none;align=center;verticalAlign=middle;whiteSpace=wrap;rounded=0;" vertex="1" parent="1">
                    <mxGeometry x="730" y="150" width="60" height="30" as="geometry"/>
                </mxCell>
                <mxCell id="20" value="s" style="text;html=1;strokeColor=none;fillColor=none;align=center;verticalAlign=middle;whiteSpace=wrap;rounded=0;" vertex="1" parent="1">
                    <mxGeometry x="670" y="180" width="60" height="30" as="geometry"/>
                </mxCell>
                <mxCell id="21" value="q" style="text;html=1;strokeColor=none;fillColor=none;align=center;verticalAlign=middle;whiteSpace=wrap;rounded=0;" vertex="1" parent="1">
                    <mxGeometry x="730" y="180" width="60" height="30" as="geometry"/>
                </mxCell>
                <mxCell id="22" value="RESPONDER AQUI DENTRO" style="text;html=1;align=center;verticalAlign=middle;resizable=0;points=[];autosize=1;strokeColor=none;fillColor=none;" vertex="1" parent="1">
                    <mxGeometry x="340" y="720" width="190" height="30" as="geometry"/>
                </mxCell>
                <mxCell id="23" value="Componentes que podem ser usados!&amp;nbsp;" style="text;html=1;strokeColor=none;fillColor=none;align=center;verticalAlign=middle;whiteSpace=wrap;rounded=0;" vertex="1" parent="1">
                    <mxGeometry x="50" width="320" height="30" as="geometry"/>
                </mxCell>
                <mxCell id="3" value="" style="verticalLabelPosition=bottom;shadow=0;dashed=0;align=center;html=1;verticalAlign=top;shape=mxgraph.electrical.logic_gates.buffer2;fillColor=#FFFFFF;" vertex="1" parent="1">
                    <mxGeometry x="70" y="120" width="100" height="60" as="geometry"/>
                </mxCell>
                <mxCell id="4" value="" style="verticalLabelPosition=bottom;shadow=0;dashed=0;align=center;html=1;verticalAlign=top;shape=mxgraph.electrical.logic_gates.logic_gate;operation=and;negating=1;negSize=0.15;fillColor=#FFFFFF;" vertex="1" parent="1">
                    <mxGeometry x="190" y="40" width="100" height="60" as="geometry"/>
                </mxCell>
                <mxCell id="5" value="" style="verticalLabelPosition=bottom;shadow=0;dashed=0;align=center;html=1;verticalAlign=top;shape=mxgraph.electrical.logic_gates.logic_gate;operation=and;fillColor=#FFFFFF;" vertex="1" parent="1">
                    <mxGeometry x="70" y="40" width="100" height="60" as="geometry"/>
                </mxCell>
                <mxCell id="6" value="" style="verticalLabelPosition=bottom;shadow=0;dashed=0;align=center;html=1;verticalAlign=top;shape=mxgraph.electrical.logic_gates.logic_gate;operation=or;fillColor=#FFFFFF;" vertex="1" parent="1">
                    <mxGeometry x="320" y="120" width="100" height="60" as="geometry"/>
                </mxCell>
                <mxCell id="7" value="" style="verticalLabelPosition=bottom;shadow=0;dashed=0;align=center;html=1;verticalAlign=top;shape=mxgraph.electrical.logic_gates.logic_gate;operation=xor;fillColor=#FFFFFF;" vertex="1" parent="1">
                    <mxGeometry x="310" y="40" width="100" height="60" as="geometry"/>
                </mxCell>
                <mxCell id="8" value="" style="verticalLabelPosition=bottom;shadow=0;dashed=0;align=center;html=1;verticalAlign=top;shape=mxgraph.electrical.logic_gates.logic_gate;operation=xor;negating=1;negSize=0.15;fillColor=#FFFFFF;" vertex="1" parent="1">
                    <mxGeometry x="200" y="120" width="100" height="60" as="geometry"/>
                </mxCell>
                <mxCell id="9" value="Mux" style="shadow=0;dashed=0;align=center;html=1;strokeWidth=1;shape=mxgraph.electrical.abstract.mux2;fillColor=#FFFFFF;" vertex="1" parent="1">
                    <mxGeometry x="565" y="40" width="80" height="120" as="geometry"/>
                </mxCell>
                <mxCell id="10" value="Demux" style="shadow=0;dashed=0;align=center;html=1;strokeWidth=1;shape=mxgraph.electrical.abstract.mux2;operation=demux;fillColor=#FFFFFF;" vertex="1" parent="1">
                    <mxGeometry x="470" y="40" width="80" height="120" as="geometry"/>
                </mxCell>
                <mxCell id="13" value="" style="shape=flexArrow;endArrow=classic;html=1;entryX=0.104;entryY=0.208;entryDx=0;entryDy=0;entryPerimeter=0;fillColor=#FFFFFF;" edge="1" parent="1">
                    <mxGeometry width="50" height="50" relative="1" as="geometry">
                        <mxPoint x="670" y="69.77999999999997" as="sourcePoint"/>
                        <mxPoint x="809.9200000000001" y="69.61999999999989" as="targetPoint"/>
                    </mxGeometry>
                </mxCell>
                <mxCell id="15" value="" style="endArrow=classic;html=1;fillColor=#FFFFFF;entryX=0.104;entryY=0.229;entryDx=0;entryDy=0;entryPerimeter=0;" edge="1" parent="1">
                    <mxGeometry width="50" height="50" relative="1" as="geometry">
                        <mxPoint x="670" y="120.07999999999998" as="sourcePoint"/>
                        <mxPoint x="799.9200000000001" y="119.99999999999983" as="targetPoint"/>
                    </mxGeometry>
                </mxCell>
            </root>
        </mxGraphModel>
    </diagram>
</mxfile>